<svg width="2745" height="1314" viewBox="0 0 2745 1314" fill="none" xmlns="http://www.w3.org/2000/svg">
<path d="M209 917C915.86 917 1622.72 917 2351 917C2351 948.68 2351 980.36 2351 1013C2298.63 1013.26 2298.63 1013.26 2277.94 1013.35C2275.99 1013.36 2275.99 1013.36 2273.99 1013.37C2189.53 1013.74 2105.07 1014.01 1880.55 1014.11C1879.41 1014.11 1878.28 1014.11 1877.11 1014.11C1818.1 1014.12 1759.1 1014.11 1700.09 1014.1C1661.72 1014.1 1623.35 1014.1 1584.98 1014.09C1583.69 1014.09 1582.41 1014.09 1581.08 1014.09C1569.3 1014.09 1557.52 1014.09 1545.73 1014.09C1516.5 1014.09 1487.27 1014.09 1458.04 1014.09C1457.37 1014.09 1456.71 1014.09 1456.03 1014.09C1413.34 1014.09 1370.66 1014.09 1327.97 1014.08C1327.29 1014.08 1326.62 1014.08 1325.92 1014.08C1305.34 1014.08 1284.76 1014.08 1264.19 1014.08C1241.42 1014.07 1218.65 1014.07 1195.88 1014.07C1195.2 1014.07 1194.51 1014.07 1193.81 1014.07C1128.22 1014.06 1062.62 1014.06 997.033 1014.06C994.24 1014.05 991.447 1014.05 988.654 1014.05C962.944 1014.05 937.234 1014.05 911.524 1014.05C910.498 1014.05 910.498 1014.05 909.452 1014.05C907.381 1014.05 905.31 1014.05 903.24 1014.05C848.02 1014.05 792.8 1014.05 737.58 1014.04C734.953 1014.04 732.326 1014.04 729.698 1014.04C612.057 1014.04 494.416 1014.03 376.774 1014.02C375.677 1014.02 374.58 1014.02 373.45 1014.02C334.566 1014.01 295.683 1014.01 256.799 1014C255.634 1014 255.634 1014 254.445 1014C239.297 1014 224.148 1014 209 1014C209 981.99 209 949.98 209 917Z" fill="#00AEEF"/>
<path d="M1281 917C1634.1 917 1987.2 917 2351 917C2351 948.68 2351 980.36 2351 1013C2297.95 1013.26 2297.95 1013.26 2276.98 1013.35C2275.66 1013.36 2274.35 1013.36 2273 1013.37C2188.72 1013.73 2104.44 1014.01 1881.39 1014.1C1879.18 1014.1 1876.97 1014.1 1874.76 1014.1C1820.95 1014.1 1767.13 1014.09 1713.32 1014.07C1678.52 1014.07 1643.73 1014.06 1608.93 1014.05C1607.77 1014.05 1606.6 1014.05 1605.41 1014.05C1593.72 1014.05 1582.03 1014.05 1570.34 1014.05C1546.57 1014.05 1522.8 1014.05 1499.03 1014.04C1497.94 1014.04 1496.85 1014.04 1495.73 1014.04C1440.13 1014.03 1384.52 1014.02 1328.92 1014.01C1328.14 1014.01 1327.37 1014.01 1326.57 1014.01C1311.38 1014.01 1296.19 1014 1281 1014C1281 981.99 1281 949.98 1281 917Z" fill="#F48221"/>
<path d="M1820 917C1995.23 917 2170.46 917 2351 917C2351 948.68 2351 980.36 2351 1013C2312.56 1013.17 2274.13 1013.34 2235.69 1013.49C2233.45 1013.5 2231.2 1013.51 2228.95 1013.52C2151 1013.83 2073.04 1014.05 1936.95 1014.06C1934.74 1014.06 1932.54 1014.06 1930.33 1014.06C1920.2 1014.06 1910.07 1014.05 1899.94 1014.05C1898.68 1014.05 1897.41 1014.05 1896.1 1014.05C1870.73 1014.04 1845.37 1014.02 1820 1014C1820 981.99 1820 949.98 1820 917Z" fill="#92278F"/>
<path d="M487.457 286.793C493.936 289.868 496.953 295.913 500.375 301.875C504.879 309.56 509.59 317.067 514.5 324.5C519.703 332.395 524.694 340.375 529.512 348.51C534.908 357.593 540.617 366.473 546.317 375.369C556.654 391.53 566.778 407.828 576.937 424.103C583.746 435.011 590.565 445.913 597.442 456.779C601.485 463.171 605.495 469.584 609.5 476C616.45 487.133 623.446 498.235 630.471 509.321C636.75 519.23 642.975 529.17 649.138 539.153C653.284 545.861 657.48 552.536 661.698 559.198C664.75 564.02 667.791 568.847 670.812 573.688C671.206 574.318 671.6 574.948 672.005 575.598C673.337 577.732 674.668 579.866 676 582C686.525 598.867 686.525 598.867 697.125 615.688C701.85 623.148 706.506 630.65 711.145 638.165C714.729 643.965 718.35 649.741 722 655.5C726.764 663.017 731.459 670.574 736.134 678.146C739.825 684.12 743.555 690.068 747.312 696C750.812 701.529 754.306 707.061 757.75 712.625C758.384 713.649 759.018 714.672 759.672 715.727C761 718 761 718 761 719C755.308 719.298 749.62 719.515 743.922 719.659C741.988 719.719 740.053 719.801 738.121 719.905C722.158 720.744 722.158 720.744 717.175 716.717C715.064 713.578 713.537 710.453 712 707C710.742 704.919 709.455 702.854 708.141 700.809C706.842 698.686 705.545 696.562 704.25 694.438C699.063 685.961 693.832 677.515 688.509 669.123C684.478 662.766 680.485 656.386 676.5 650C672.019 642.821 667.526 635.651 663 628.5C656.6 618.386 650.261 608.234 643.923 598.081C640.784 593.053 637.642 588.026 634.5 583C630.713 576.942 626.927 570.884 623.145 564.824C617.45 555.703 611.75 546.586 606 537.5C599.6 527.386 593.261 517.234 586.923 507.081C583.784 502.053 580.642 497.026 577.5 492C576.25 490 575 488 573.75 486C573.131 485.01 572.512 484.02 571.875 483C566.25 474 566.25 474 564.374 470.999C563.127 469.003 561.879 467.007 560.632 465.011C557.468 459.95 554.305 454.888 551.145 449.824C545.45 440.703 539.75 431.586 534 422.5C527.608 412.397 521.276 402.257 514.945 392.116C512.335 387.935 509.723 383.756 507.111 379.577C505.842 377.548 504.574 375.518 503.307 373.487C500.497 368.985 497.68 364.488 494.836 360.008C494.363 359.26 493.889 358.511 493.402 357.74C492.535 356.372 491.666 355.006 490.792 353.643C488 349.224 488 349.224 488 347C484.851 345.134 482.65 344.538 479 345C476.741 346.796 476.741 346.796 474.75 349.312C473.968 350.232 473.185 351.151 472.379 352.098C471.594 353.055 470.809 354.013 470 355C469.287 355.865 468.574 356.73 467.84 357.621C466.371 359.415 464.908 361.213 463.449 363.016C460.682 366.388 457.849 369.697 455 373C451.445 377.125 447.932 381.272 444.5 385.5C440.566 390.346 436.516 395.081 432.441 399.809C429.41 403.333 426.43 406.89 423.5 410.5C419.566 415.346 415.516 420.081 411.441 424.809C408.41 428.333 405.43 431.89 402.5 435.5C398.566 440.346 394.516 445.081 390.441 449.809C387.41 453.333 384.43 456.89 381.5 460.5C377.566 465.346 373.516 470.081 369.441 474.809C366.41 478.333 363.43 481.89 360.5 485.5C356.566 490.346 352.516 495.081 348.441 499.809C345.41 503.333 342.43 506.89 339.5 510.5C336.068 514.728 332.554 518.875 329 523C325.39 527.192 321.814 531.404 318.312 535.687C317.579 536.554 316.846 537.42 316.09 538.312C313.911 540.976 313.911 540.976 312.254 544.125C310.083 547.664 308.482 549.7 305 552C298.494 553.389 291.736 552.708 285.154 552.225C281.973 551.998 278.797 551.854 275.609 551.734C270.403 551.538 265.202 551.289 260 551C260.46 546.16 262.825 543.197 265.812 539.562C266.3 538.956 266.788 538.349 267.291 537.723C271.803 532.148 276.48 526.713 281.172 521.289C284.362 517.594 287.452 513.823 290.531 510.035C298.341 500.433 306.215 490.887 314.238 481.461C317.543 477.568 320.735 473.596 323.906 469.594C326.851 465.946 329.895 462.385 332.934 458.816C335.678 455.586 338.367 452.323 341 449C344.549 444.521 348.229 440.167 351.934 435.816C354.678 432.586 357.367 429.323 360 426C363.549 421.521 367.229 417.167 370.934 412.816C373.678 409.586 376.367 406.323 379 403C382.091 399.099 385.274 395.289 388.5 391.5C392.321 387.01 396.054 382.466 399.719 377.848C407.401 368.257 415.273 358.819 423.238 349.462C426.543 345.568 429.735 341.597 432.906 337.594C435.851 333.946 438.895 330.385 441.934 326.816C445.335 322.812 448.628 318.732 451.891 314.613C454.911 310.872 458.024 307.211 461.145 303.553C463.154 301.195 465.133 298.83 467.043 296.391C472.944 289.183 477.901 284.605 487.457 286.793Z" fill="white"/>
<path d="M209 917C299.09 917 389.18 917 482 917C482 949.01 482 981.02 482 1014C391.91 1014 301.82 1014 209 1014C209 981.99 209 949.98 209 917Z" fill="#D1D3D5"/>
<path d="M771 287C775.141 291.549 778.234 296.936 781.5 302.125C782.428 303.592 782.428 303.592 783.375 305.088C785.253 308.057 787.127 311.028 789 314C790.031 315.633 791.062 317.266 792.094 318.898C793.551 321.205 795.007 323.512 796.463 325.82C802.613 335.565 808.809 345.281 815 355C822.174 366.263 829.341 377.529 836.466 388.824C842.615 398.567 848.809 408.282 855 418C864.184 432.418 873.34 446.854 882.459 461.313C890.606 474.23 898.795 487.12 907 500C914.173 511.26 921.339 522.525 928.461 533.817C932.292 539.888 936.143 545.946 940 552C944.838 559.595 949.657 567.2 954.461 574.816C958.292 580.887 962.143 586.945 966 593C970.838 600.595 975.657 608.2 980.461 615.816C984.292 621.887 988.143 627.945 992 634C996.347 640.825 1000.68 647.656 1005 654.5C1011.64 665.02 1018.32 675.51 1025 686C1033.2 698.867 1041.38 711.743 1049.51 724.647C1051.05 727.082 1052.59 729.516 1054.13 731.949C1055.17 733.591 1056.21 735.233 1057.25 736.875C1057.75 737.672 1058.26 738.468 1058.78 739.289C1061.6 743.754 1064.38 748.239 1067.12 752.75C1070.11 757.628 1073.21 762.423 1076.37 767.188C1076.8 767.836 1077.23 768.485 1077.68 769.153C1079.33 771.622 1080.89 773.895 1083 776C1083.12 779.125 1083.12 779.125 1083 782C1077.95 782.025 1072.89 782.043 1067.84 782.055C1066.12 782.06 1064.4 782.067 1062.68 782.075C1060.21 782.088 1057.74 782.093 1055.27 782.098C1054.12 782.105 1054.12 782.105 1052.94 782.113C1046.05 782.114 1046.05 782.114 1043 781C1041.31 778.521 1039.87 776.123 1038.44 773.5C1037.55 771.927 1036.65 770.355 1035.76 768.785C1035.3 767.982 1034.84 767.179 1034.37 766.352C1032.3 762.803 1030.07 759.37 1027.81 755.938C1023.31 749.055 1018.91 742.107 1014.56 735.125C1010.06 727.904 1005.55 720.689 1001 713.5C996.355 706.158 991.733 698.802 987.125 691.438C986.506 690.45 985.887 689.463 985.25 688.445C982.413 683.908 979.604 679.358 976.863 674.762C974.358 670.567 971.743 666.459 969.062 662.375C959.755 648.091 950.791 633.584 941.879 619.051C938.369 613.353 934.811 607.685 931.26 602.013C929.672 599.477 928.086 596.939 926.5 594.401C925.698 593.117 924.896 591.834 924.093 590.55C921.568 586.512 919.047 582.471 916.527 578.43C909.709 567.497 902.849 556.594 895.921 545.73C889.848 536.203 883.858 526.626 877.918 517.016C877.379 516.144 876.841 515.273 876.286 514.375C875.18 512.586 874.075 510.797 872.97 509.008C868.732 502.157 864.429 495.35 860.109 488.552C857.373 484.229 854.73 479.877 852.187 475.437C849.623 470.965 846.797 466.789 843.801 462.598C840.725 458.161 837.958 453.536 835.162 448.919C832.929 445.233 830.683 441.554 828.437 437.875C827.723 436.705 827.723 436.705 826.995 435.511C824.022 430.649 821.007 425.818 817.933 421.02C811.444 410.886 804.989 400.728 798.75 390.437C798.367 389.813 797.984 389.188 797.59 388.544C795 384.236 795 384.236 795 382C794.34 382 793.68 382 793 382C791.66 380.008 791.66 380.008 790.062 377.125C789.447 376.043 788.833 374.962 788.199 373.848C787.854 373.241 787.509 372.634 787.154 372.008C784.944 368.163 782.665 364.36 780.375 360.562C779.92 359.794 779.465 359.025 778.996 358.233C774.634 351.011 774.634 351.011 768 346C763.996 345.739 761.403 345.86 758 348C756.097 350.163 756.097 350.163 754.375 352.625C753.296 354.118 752.181 355.586 751 357C750.34 357 749.68 357 749 357C748.743 357.577 748.487 358.155 748.222 358.75C746.883 361.215 745.355 362.955 743.437 365C739.338 369.501 735.742 374.273 732.176 379.203C729.969 382.04 727.553 384.477 725 387C724.67 387.66 724.34 388.32 724 389C723.34 389 722.68 389 722 389C721.77 389.712 721.541 390.423 721.304 391.156C719.734 394.58 717.711 396.768 715.125 399.5C711.924 402.902 708.887 406.328 706 410C705.068 411.089 704.131 412.172 703.187 413.25C700.187 416.722 697.39 420.332 694.613 423.984C693 426 693 426 691.559 427.423C690.041 428.958 688.747 430.533 687.441 432.25C686.973 432.858 686.504 433.467 686.021 434.094C685.05 435.363 684.081 436.634 683.115 437.906C680.632 441.122 678.37 443.669 675 446C674.567 446.722 674.134 447.444 673.687 448.187C671.7 451.5 669.301 454.175 666.719 457.035C664.949 458.991 664.949 458.991 663.406 461.246C662.71 462.114 662.71 462.114 662 463C661.34 463 660.68 463 660 463C659.752 463.722 659.505 464.444 659.25 465.187C657.877 468.276 656.276 470.51 654 473C653.34 473 652.68 473 652 473C651.773 473.557 651.546 474.114 651.312 474.687C649.587 477.727 647.678 479.758 645 482C642.535 482.398 642.535 482.398 640 482C638.297 480.305 638.297 480.305 636.75 477.875C636.166 476.969 635.582 476.063 634.98 475.129C634 473.58 634 473.58 633 472C632.188 470.819 631.371 469.64 630.551 468.465C629.72 467.248 628.891 466.031 628.062 464.812C627.459 463.959 627.459 463.959 626.845 463.087C624.087 458.926 623.479 455.942 624 451C625.375 448.562 625.375 448.562 627 447C627.66 447 628.32 447 629 447C629.34 446.196 629.34 446.196 629.687 445.375C631.455 442.175 633.536 439.71 636 437C636.66 437 637.32 437 638 437C638.237 436.295 638.474 435.59 638.719 434.863C640.225 431.497 642.156 429.03 644.5 426.187C645.294 425.212 646.088 424.236 646.906 423.23C647.597 422.494 648.288 421.758 649 421C649.66 421 650.32 421 651 421C651.225 420.301 651.451 419.603 651.683 418.883C653.286 415.373 655.534 412.738 658.062 409.875C659.068 408.712 660.073 407.547 661.078 406.383C661.825 405.521 661.825 405.521 662.588 404.642C664.536 402.377 666.427 400.068 668.312 397.75C676.846 387.277 685.412 376.833 694.161 366.538C699.304 360.479 704.379 354.362 709.265 348.094C709.982 347.176 710.699 346.258 711.437 345.312C712.075 344.484 712.713 343.655 713.371 342.801C713.908 342.207 714.446 341.612 715 341C715.66 341 716.32 341 717 341C717.246 340.27 717.492 339.541 717.746 338.789C719.135 335.698 720.736 333.829 723.062 331.375C727.096 327.019 730.882 322.531 734.617 317.918C737.662 314.189 740.779 310.523 743.898 306.856C747.677 302.405 751.367 297.889 755.027 293.34C763.43 283.373 763.43 283.373 771 287Z" fill="white"/>
<path d="M1281 917C1369.44 917 1457.88 917 1549 917C1549 949.01 1549 981.02 1549 1014C1460.56 1014 1372.12 1014 1281 1014C1281 981.99 1281 949.98 1281 917Z" fill="#ED1D24"/>
<path d="M1014 917C1102.11 917 1190.22 917 1281 917C1281 949.01 1281 981.02 1281 1014C1192.89 1014 1104.78 1014 1014 1014C1014 981.99 1014 949.98 1014 917Z" fill="#0154A6"/>
<path d="M749 917C836.45 917 923.9 917 1014 917C1014 949.01 1014 981.02 1014 1014C926.55 1014 839.1 1014 749 1014C749 981.99 749 949.98 749 917Z" fill="#18A79E"/>
<path d="M1820 917C1906.79 917 1993.58 917 2083 917C2083 949.01 2083 981.02 2083 1014C1996.21 1014 1909.42 1014 1820 1014C1820 981.99 1820 949.98 1820 917Z" fill="#ED4D9B"/>
<path d="M1106.5 408.625C1107.16 408.626 1107.82 408.627 1108.51 408.628C1137.85 408.756 1162.25 420.037 1183.56 440.187C1196.67 453.738 1205.53 470.725 1210 489C1210.18 489.69 1210.35 490.381 1210.53 491.092C1212.24 498.544 1212.39 505.877 1212.38 513.5C1212.37 514.162 1212.37 514.823 1212.37 515.505C1212.24 544.845 1200.96 569.253 1180.81 590.562C1167.26 603.668 1150.27 612.525 1132 617C1131.31 617.175 1130.62 617.35 1129.91 617.531C1122.46 619.244 1115.12 619.386 1107.5 619.375C1106.84 619.374 1106.18 619.373 1105.5 619.372C1076.15 619.244 1051.75 607.963 1030.44 587.812C1017.33 574.262 1008.47 557.275 1004 539C1003.82 538.31 1003.65 537.619 1003.47 536.908C1001.76 529.456 1001.61 522.123 1001.63 514.5C1001.63 513.838 1001.63 513.177 1001.63 512.495C1001.76 483.155 1013.04 458.747 1033.19 437.437C1046.74 424.332 1063.73 415.475 1082 411C1082.69 410.825 1083.38 410.65 1084.09 410.469C1091.54 408.756 1098.88 408.614 1106.5 408.625ZM1055 458C1054.08 458.779 1054.08 458.779 1053.14 459.574C1038.9 472.571 1031.17 492.851 1030 511.711C1029.98 532.721 1037.18 551.167 1051 567C1051.52 567.615 1052.04 568.23 1052.57 568.863C1065.57 583.104 1085.85 590.827 1104.71 591.996C1125.72 592.021 1144.17 584.817 1160 571C1160.61 570.481 1161.23 569.961 1161.86 569.426C1176.1 556.429 1183.83 536.149 1185 517.289C1185.02 496.279 1177.82 477.833 1164 462C1163.48 461.385 1162.96 460.77 1162.43 460.137C1149.43 445.896 1129.15 438.173 1110.29 437.004C1089.28 436.979 1070.83 444.183 1055 458Z" fill="white"/>
<path d="M1267 419C1268.6 418.955 1270.21 418.923 1271.81 418.897C1272.7 418.878 1273.6 418.858 1274.52 418.839C1278.15 419.075 1279.87 420.5 1282.5 422.937C1283.42 423.761 1284.34 424.585 1285.28 425.434C1286.18 426.28 1287.08 427.127 1288 428C1289.66 429.503 1291.33 431.003 1293 432.5C1293.82 433.248 1294.64 433.995 1295.48 434.766C1298.01 437.012 1300.61 439.135 1303.25 441.25C1308.32 445.348 1313.06 449.731 1317.8 454.198C1322.13 458.254 1326.63 462.03 1331.27 465.734C1335.43 469.187 1339.34 472.899 1343.27 476.617C1345.85 479.016 1345.85 479.016 1348.54 480.508C1351.52 482.314 1353.59 484.491 1356 487C1363.21 493.955 1370.6 500.626 1378.42 506.891C1381.88 509.72 1385.16 512.731 1388.46 515.742C1391.14 518.122 1393.9 520.377 1396.69 522.625C1400.41 525.638 1403.81 528.752 1407.14 532.195C1410.28 535.242 1413.74 537.912 1417.15 540.652C1420.83 543.684 1424.32 546.897 1427.81 550.152C1429.82 551.845 1431.6 552.957 1434 554C1435.28 551.432 1435.14 549.587 1435.16 546.71C1435.17 545.588 1435.18 544.467 1435.19 543.311C1435.19 542.074 1435.2 540.838 1435.21 539.564C1435.22 538.266 1435.23 536.969 1435.24 535.632C1435.26 532.068 1435.28 528.504 1435.3 524.941C1435.33 521.218 1435.35 517.496 1435.38 513.774C1435.43 506.723 1435.47 499.671 1435.52 492.62C1435.57 484.594 1435.62 476.567 1435.68 468.541C1435.79 452.027 1435.9 435.514 1436 419C1444.91 419 1453.82 419 1463 419C1463 481.7 1463 544.4 1463 609C1455.12 609 1455.12 609 1450.69 605.062C1449.74 604.239 1448.8 603.415 1447.82 602.566C1446.43 601.296 1446.43 601.296 1445 600C1444.16 599.246 1443.32 598.492 1442.46 597.715C1440.8 596.225 1439.16 594.732 1437.51 593.234C1435 590.999 1432.43 588.866 1429.81 586.75C1424.04 582.078 1418.45 577.222 1412.85 572.348C1408.52 568.574 1404.15 564.839 1399.78 561.105C1396.77 558.529 1393.78 555.937 1390.81 553.312C1385.45 548.603 1379.88 544.139 1374.34 539.655C1372.66 538.296 1370.98 536.93 1369.31 535.562C1368.3 534.739 1367.28 533.915 1366.24 533.066C1365.5 532.384 1364.76 531.703 1364 531C1364 530.34 1364 529.68 1364 529C1363.44 528.752 1362.89 528.505 1362.31 528.25C1359.58 526.771 1357.32 525.065 1355 523C1355 522.34 1355 521.68 1355 521C1354.44 520.742 1353.88 520.484 1353.3 520.219C1350.73 518.858 1348.55 517.272 1346.25 515.5C1345.45 514.892 1344.65 514.283 1343.83 513.656C1343.22 513.11 1342.62 512.563 1342 512C1342 511.34 1342 510.68 1342 510C1341.45 509.764 1340.89 509.528 1340.32 509.285C1337.44 507.687 1335.29 505.681 1332.88 503.437C1329.69 500.363 1329.69 500.363 1326 498C1326 497.34 1326 496.68 1326 496C1325.41 495.73 1324.83 495.461 1324.22 495.183C1322 494.001 1320.35 492.729 1318.47 491.066C1317.82 490.5 1317.18 489.933 1316.51 489.35C1315.85 488.76 1315.18 488.17 1314.5 487.562C1313.18 486.396 1311.86 485.231 1310.53 484.066C1309.61 483.255 1309.61 483.255 1308.67 482.426C1306.91 480.885 1306.91 480.885 1304.53 479.215C1304.03 478.814 1303.52 478.413 1303 478C1303 477.34 1303 476.68 1303 476C1300.03 475.505 1300.03 475.505 1297 475C1297 475.678 1296.99 476.357 1296.99 477.056C1296.88 493.547 1296.78 510.038 1296.66 526.528C1296.61 534.503 1296.55 542.478 1296.5 550.453C1296.46 557.402 1296.41 564.351 1296.36 571.299C1296.34 574.981 1296.31 578.662 1296.29 582.343C1296.27 586.447 1296.24 590.551 1296.21 594.656C1296.2 595.883 1296.19 597.11 1296.19 598.374C1296.17 600.044 1296.17 600.044 1296.16 601.748C1296.15 602.72 1296.15 603.691 1296.14 604.692C1296 607 1296 607 1295 609C1290.52 609.029 1286.04 609.047 1281.56 609.062C1280.28 609.071 1279 609.079 1277.69 609.088C1276.47 609.091 1275.26 609.094 1274 609.098C1272.32 609.105 1272.32 609.105 1270.59 609.114C1268 609 1268 609 1267 608C1266.9 605.559 1266.87 603.146 1266.88 600.705C1266.88 599.932 1266.88 599.159 1266.88 598.363C1266.88 595.754 1266.88 593.146 1266.89 590.537C1266.89 588.675 1266.89 586.812 1266.89 584.95C1266.89 579.878 1266.89 574.806 1266.9 569.734C1266.9 564.44 1266.91 559.145 1266.91 553.851C1266.91 543.817 1266.92 533.784 1266.93 523.751C1266.94 512.331 1266.94 500.912 1266.95 489.492C1266.96 465.995 1266.98 442.497 1267 419Z" fill="white"/>
<path d="M1545 419C1559.02 418.906 1573.04 418.836 1587.07 418.793C1593.58 418.772 1600.09 418.744 1606.6 418.698C1612.89 418.655 1619.18 418.631 1625.47 418.62C1627.86 418.613 1630.26 418.599 1632.65 418.577C1636.02 418.548 1639.38 418.544 1642.75 418.546C1643.73 418.532 1644.7 418.517 1645.71 418.502C1660.09 418.587 1673.48 425.862 1683.77 435.57C1692.69 445.304 1695.53 455.433 1695.45 468.278C1695.44 470.364 1695.47 472.446 1695.5 474.531C1695.57 486.388 1693.1 493.604 1684.88 502.062C1684.07 502.932 1684.07 502.932 1683.25 503.818C1681.88 505.261 1680.45 506.637 1679 508C1678.34 508 1677.68 508 1677 508C1676.64 508.897 1676.64 508.897 1676.27 509.812C1672.3 516.647 1662.3 519.236 1655.17 521.254C1647.8 522.989 1640.55 523.122 1633 523C1633 524.65 1633 526.3 1633 528C1633.66 528.33 1634.32 528.66 1635 529C1636.31 530.764 1637.61 532.53 1638.91 534.301C1641.58 537.752 1644.44 541.026 1647.31 544.312C1651.89 549.553 1656.38 554.849 1660.76 560.258C1663.3 563.37 1665.9 566.437 1668.5 569.5C1671.85 573.446 1675.17 577.416 1678.44 581.438C1682.49 586.414 1686.65 591.288 1690.84 596.142C1692.23 597.757 1693.62 599.378 1695 601C1696.17 602.35 1696.17 602.35 1697.36 603.727C1699 606 1699 606 1699 609C1695.34 609.461 1691.68 609.734 1688 610C1686.9 610.111 1686.9 610.111 1685.78 610.225C1671.42 611.6 1671.42 611.6 1665.87 607.934C1663.29 605.095 1661.15 602.178 1659 599C1657.56 597.216 1656.1 595.445 1654.63 593.688C1653.9 592.784 1653.17 591.88 1652.41 590.949C1649.66 587.586 1646.84 584.291 1644 581C1639.68 575.984 1635.45 570.908 1631.27 565.77C1626.92 560.456 1622.45 555.235 1618 550C1599.45 528.175 1599.45 528.175 1596 523C1593.5 522.567 1593.5 522.567 1590.59 522.672C1589.52 522.677 1588.45 522.682 1587.34 522.688C1585.66 522.718 1585.66 522.718 1583.94 522.75C1582.81 522.755 1581.68 522.76 1580.52 522.766C1575.4 522.331 1575.4 522.331 1571 524C1570.87 526.647 1570.81 529.268 1570.79 531.916C1570.78 533.16 1570.78 533.16 1570.76 534.429C1570.73 537.183 1570.71 539.937 1570.68 542.691C1570.66 544.596 1570.64 546.5 1570.62 548.404C1570.57 553.427 1570.52 558.449 1570.47 563.471C1570.42 568.592 1570.36 573.713 1570.31 578.834C1570.2 588.889 1570.1 598.945 1570 609C1566.02 609.029 1562.04 609.047 1558.06 609.062C1556.93 609.071 1555.79 609.079 1554.62 609.088C1553.54 609.091 1552.46 609.094 1551.35 609.098C1550.35 609.103 1549.35 609.108 1548.32 609.114C1546 609 1546 609 1545 608C1544.9 605.559 1544.87 603.146 1544.88 600.705C1544.88 599.932 1544.88 599.159 1544.88 598.363C1544.88 595.754 1544.88 593.146 1544.89 590.537C1544.89 588.675 1544.89 586.812 1544.89 584.95C1544.89 579.878 1544.89 574.806 1544.9 569.734C1544.9 564.44 1544.91 559.145 1544.91 553.851C1544.91 543.817 1544.92 533.784 1544.93 523.751C1544.94 512.331 1544.94 500.912 1544.95 489.492C1544.96 465.995 1544.98 442.497 1545 419ZM1569 443C1568.05 445.847 1567.87 447.609 1567.87 450.56C1567.87 451.481 1567.86 452.403 1567.86 453.352C1567.86 454.346 1567.87 455.339 1567.87 456.363C1567.87 457.388 1567.87 458.413 1567.86 459.469C1567.86 461.638 1567.87 463.808 1567.87 465.977C1567.88 469.289 1567.87 472.6 1567.86 475.912C1567.86 478.021 1567.87 480.13 1567.87 482.238C1567.87 483.226 1567.86 484.214 1567.86 485.231C1567.85 492.175 1567.85 492.175 1569 499C1571.78 500.391 1574.07 500.143 1577.19 500.161C1578.49 500.171 1579.79 500.18 1581.13 500.19C1582.57 500.195 1584 500.199 1585.43 500.203C1586.9 500.209 1588.37 500.215 1589.84 500.22C1592.93 500.231 1596.03 500.237 1599.12 500.24C1603.05 500.246 1606.98 500.27 1610.91 500.298C1613.96 500.317 1617 500.322 1620.04 500.324C1621.49 500.327 1622.94 500.334 1624.38 500.348C1637.27 500.457 1652.28 499.487 1662.07 489.992C1667.61 483.338 1670.44 477.021 1669.81 468.312C1669.31 464.349 1668.51 460.72 1667 457C1666.34 457 1665.68 457 1665 457C1664.61 456.136 1664.61 456.136 1664.22 455.254C1661.08 449.448 1656.32 445.033 1650 443.062C1640.81 440.718 1631.52 440.837 1622.11 440.832C1620.67 440.829 1619.23 440.825 1617.79 440.822C1614.79 440.816 1611.79 440.814 1608.79 440.815C1604.95 440.815 1601.1 440.801 1597.26 440.784C1594.29 440.773 1591.33 440.771 1588.37 440.771C1586.95 440.77 1585.53 440.766 1584.11 440.758C1582.13 440.748 1580.16 440.752 1578.18 440.757C1576.49 440.755 1576.49 440.755 1574.77 440.753C1571.79 440.796 1571.79 440.796 1569 443Z" fill="white"/>
<path d="M1755 419C1798.23 419 1841.46 419 1886 419C1886 426.26 1886 433.52 1886 441C1881.39 441.038 1881.39 441.038 1876.68 441.076C1866.54 441.159 1856.4 441.248 1846.26 441.339C1840.11 441.395 1833.96 441.448 1827.81 441.497C1821.87 441.545 1815.94 441.597 1810.01 441.653C1807.74 441.673 1805.47 441.692 1803.21 441.709C1800.04 441.733 1796.87 441.763 1793.7 441.795C1792.76 441.8 1791.82 441.806 1790.85 441.812C1789.98 441.822 1789.12 441.832 1788.23 441.842C1787.48 441.848 1786.73 441.855 1785.96 441.861C1783.79 441.933 1783.79 441.933 1781 443C1781 459.17 1781 475.34 1781 492C1784.61 493.805 1785.6 494.25 1789.32 494.241C1790.17 494.243 1791.03 494.246 1791.91 494.249C1792.84 494.242 1793.77 494.234 1794.73 494.227C1796.2 494.227 1796.2 494.227 1797.71 494.228C1800.97 494.227 1804.23 494.211 1807.48 494.195C1809.74 494.192 1812 494.189 1814.26 494.187C1820.21 494.179 1826.15 494.159 1832.09 494.137C1838.16 494.117 1844.23 494.108 1850.29 494.098C1862.2 494.076 1874.1 494.041 1886 494C1886 501.92 1886 509.84 1886 518C1834.52 518.495 1834.52 518.495 1782 519C1780.65 521.707 1780.86 523.841 1780.84 526.871C1780.83 528.102 1780.82 529.334 1780.81 530.603C1780.8 531.952 1780.8 533.302 1780.8 534.652C1780.79 536.032 1780.79 537.412 1780.78 538.792C1780.77 541.687 1780.76 544.581 1780.76 547.475C1780.75 551.186 1780.73 554.896 1780.7 558.606C1780.68 561.457 1780.68 564.307 1780.68 567.158C1780.67 568.526 1780.67 569.894 1780.65 571.262C1780.64 573.174 1780.64 575.087 1780.64 577C1780.64 578.088 1780.64 579.177 1780.63 580.299C1781.06 583.435 1781.55 584.094 1784 586C1785.98 586.453 1785.98 586.453 1788.19 586.392C1789.47 586.409 1789.47 586.409 1790.77 586.426C1791.7 586.423 1792.64 586.42 1793.6 586.417C1795.07 586.429 1795.07 586.429 1796.58 586.443C1799.84 586.468 1803.09 586.472 1806.35 586.477C1808.61 586.491 1810.87 586.507 1813.12 586.524C1819.07 586.566 1825.02 586.591 1830.97 586.611C1840.5 586.647 1850.02 586.708 1859.55 586.77C1862.89 586.789 1866.23 586.801 1869.56 586.811C1871.6 586.821 1873.63 586.832 1875.66 586.842C1877.07 586.844 1877.07 586.844 1878.5 586.845C1884.89 586.887 1884.89 586.887 1886 588C1886 594.93 1886 601.86 1886 609C1842.77 609 1799.54 609 1755 609C1755 546.3 1755 483.6 1755 419Z" fill="white"/>
<path d="M2031 419C2034.63 419 2038.26 419 2042 419C2042.45 419.923 2042.9 420.846 2043.36 421.797C2048.48 432.209 2053.99 442.376 2059.62 452.517C2064.08 460.556 2068.4 468.65 2072.62 476.812C2077.11 485.439 2081.69 494.002 2086.36 502.526C2090.23 509.584 2094.06 516.661 2097.88 523.75C2098.46 524.838 2099.05 525.925 2099.65 527.046C2100.84 529.259 2102.03 531.472 2103.22 533.686C2106.72 540.201 2110.23 546.714 2113.74 553.227C2116.72 558.766 2119.7 564.307 2122.68 569.852C2123.89 572.109 2125.1 574.367 2126.31 576.625C2126.89 577.707 2127.47 578.79 2128.07 579.905C2130.62 584.649 2133.19 589.377 2135.88 594.047C2136.31 594.79 2136.73 595.533 2137.17 596.298C2137.94 597.632 2138.72 598.96 2139.51 600.284C2141.43 603.582 2142 605.056 2142 609C2133.42 610.584 2124.41 611.854 2116 609C2109.44 603.476 2106.15 595.093 2102.64 587.447C2100.1 582.118 2097.02 577.152 2093.94 572.125C2089.41 564.545 2084.95 556.9 2081 549C2069.58 548.954 2058.16 548.918 2046.73 548.896C2041.43 548.886 2036.13 548.872 2030.82 548.849C2025.71 548.827 2020.59 548.815 2015.48 548.81C2013.52 548.807 2011.57 548.799 2009.61 548.789C2006.88 548.774 2004.15 548.772 2001.42 548.773C2000.2 548.762 2000.2 548.762 1998.96 548.751C1995.1 548.765 1993.28 548.811 1990 551C1988.57 553.314 1987.26 555.599 1986 558C1985.63 558.703 1985.25 559.407 1984.87 560.131C1983.29 563.122 1981.73 566.12 1980.18 569.123C1979.8 569.852 1979.42 570.581 1979.02 571.332C1978.68 571.989 1978.34 572.646 1977.99 573.323C1977 575 1977 575 1975 577C1974.29 578.984 1973.61 580.983 1973 583C1972.34 583 1971.68 583 1971 583C1970.76 583.776 1970.52 584.552 1970.28 585.352C1963.84 603.733 1963.84 603.733 1957 609C1948.29 611.5 1938.86 610.229 1930 609C1930.33 601.941 1933.52 596.751 1936.94 590.688C1937.53 589.624 1938.11 588.56 1938.72 587.464C1940.47 584.304 1942.23 581.151 1944 578C1944.9 576.377 1945.8 574.753 1946.7 573.129C1948.31 570.219 1949.93 567.311 1951.55 564.406C1961.27 546.957 1970.84 529.413 1980.33 511.836C1985.36 502.532 1990.39 493.236 1995.6 484.036C1998.92 478.179 2002.15 472.281 2005.38 466.375C2006.14 464.969 2006.14 464.969 2006.93 463.535C2009.37 459.06 2011.76 454.579 2014 450C2014.66 450 2015.32 450 2016 450C2016.66 447.69 2017.32 445.38 2018 443C2018.66 443 2019.32 443 2020 443C2020.06 442.203 2020.12 441.407 2020.18 440.586C2021.29 435.728 2023.58 431.909 2026.06 427.625C2026.53 426.794 2027.01 425.962 2027.49 425.105C2028.65 423.066 2029.83 421.032 2031 419ZM2035 469C2030.92 473.846 2028.36 479.196 2025.61 484.871C2023.51 488.946 2021.03 492.712 2018.52 496.543C2016.65 499.561 2015.39 502.737 2014 506C2013.02 507.473 2012.02 508.93 2011 510.375C2008.02 514.689 2006.36 518.957 2005 524C2006.51 525.509 2007.88 525.213 2009.99 525.316C2010.83 525.358 2011.67 525.401 2012.54 525.444C2013.91 525.503 2013.91 525.503 2015.31 525.562C2016.73 525.625 2016.73 525.625 2018.17 525.689C2034.17 526.341 2050.03 526.012 2066 525C2066.84 522.119 2067.2 520.521 2066.11 517.679C2065.64 516.896 2065.17 516.112 2064.68 515.305C2064.17 514.43 2063.66 513.554 2063.13 512.653C2062.57 511.736 2062.01 510.819 2061.44 509.875C2060.32 507.974 2059.19 506.073 2058.07 504.172C2057.54 503.269 2057 502.366 2056.44 501.436C2054.82 498.696 2053.27 495.926 2051.75 493.125C2051.32 492.322 2050.88 491.519 2050.43 490.691C2049.27 488.515 2048.12 486.335 2046.97 484.152C2046.62 483.476 2046.26 482.8 2045.89 482.103C2045.19 480.778 2044.49 479.452 2043.8 478.124C2041.3 473.29 2041.3 473.29 2038 469C2037.01 469 2036.02 469 2035 469Z" fill="white"/>
<path d="M2186 419C2194.91 419 2203.82 419 2213 419C2213 474.77 2213 530.54 2213 588C2256.56 588 2300.12 588 2345 588C2345 594.6 2345 601.2 2345 608C2344 609 2344 609 2341.41 609.123C2340.25 609.122 2339.08 609.121 2337.88 609.12C2336.91 609.122 2336.91 609.122 2335.93 609.123C2333.75 609.125 2331.56 609.119 2329.38 609.114C2327.8 609.113 2326.22 609.113 2324.64 609.114C2320.38 609.114 2316.13 609.108 2311.88 609.101C2307.9 609.096 2303.91 609.095 2299.93 609.095C2288.27 609.089 2276.6 609.075 2264.94 609.062C2238.89 609.042 2212.84 609.021 2186 609C2186 546.3 2186 483.6 2186 419Z" fill="white"/>
<path d="M1988 697C1996.78 704.732 2002.1 715.64 2003.22 727.304C2003.98 743.052 2002.04 757.591 1991.33 769.926C1979.41 781.41 1964.6 784.357 1948.69 784.312C1947.54 784.329 1946.39 784.345 1945.21 784.361C1930.81 784.369 1916.86 780.745 1906.06 770.688C1896.91 760.511 1893.42 749.182 1893.56 735.688C1893.57 734.679 1893.58 733.67 1893.59 732.63C1893.91 718.377 1898.22 707.303 1908.62 697.25C1929.8 679.859 1966.55 681.277 1988 697ZM1921 707C1920.44 707.503 1919.89 708.005 1919.31 708.523C1912.23 715.78 1910.61 725.213 1910.5 735C1910.67 746.552 1913.2 755.4 1921.42 763.867C1932.03 772.647 1944.88 773.028 1958 772C1967.4 770.118 1974.94 765.318 1980.37 757.438C1986.65 747.61 1987.26 736.324 1985.54 724.961C1983.38 715.951 1979 708.509 1971.23 703.285C1955.88 694.425 1934.4 694.81 1921 707Z" fill="#20ADC2"/>
<path d="M2145 688C2157.22 687.876 2157.22 687.876 2169.69 687.75C2172.23 687.714 2174.78 687.677 2177.4 687.64C2207.03 687.391 2207.03 687.391 2218 698C2222.88 704.534 2224.03 711.012 2223 719C2221.72 726.578 2218.02 731.339 2212 736C2208.43 738.206 2204.78 740.167 2201 742C2212.86 753.202 2212.86 753.202 2224.81 764.313C2225.33 764.786 2225.84 765.26 2226.37 765.749C2229.05 768.223 2231.75 770.678 2234.47 773.113C2235.03 773.619 2235.59 774.124 2236.17 774.645C2237.24 775.61 2238.32 776.57 2239.4 777.525C2240.63 778.643 2241.82 779.817 2243 781C2243 781.66 2243 782.32 2243 783C2226.31 785.374 2226.31 785.374 2219.56 781.657C2215.06 778.208 2211.28 774.102 2207.58 769.82C2205.65 767.601 2203.6 765.548 2201.5 763.5C2200.91 762.904 2200.33 762.309 2199.73 761.695C2197.27 759.286 2194.68 757.055 2192.05 754.836C2190 753 2190 753 2188.82 751.485C2186.58 748.761 2184.97 747.219 2181.46 746.424C2178.49 746.187 2175.6 746.118 2172.62 746.125C2169.12 746.084 2165.61 746.043 2162 746C2162 758.21 2162 770.42 2162 783C2156.39 783 2150.78 783 2145 783C2145 751.65 2145 720.3 2145 688ZM2162 700C2162 711.22 2162 722.44 2162 734C2173.86 734.101 2173.86 734.101 2185.5 733.25C2186.77 733.111 2188.04 732.972 2189.34 732.828C2195.66 731.398 2200.43 728.548 2204 723C2206.25 718.177 2206.43 714.064 2205 709C2202.13 704.224 2198.47 702.124 2193.23 700.428C2190.22 699.85 2187.34 699.889 2184.27 699.902C2183.1 699.905 2181.93 699.907 2180.73 699.91C2179.25 699.919 2177.77 699.928 2176.25 699.938C2169.2 699.968 2169.2 699.968 2162 700Z" fill="#20ADC2"/>
<path d="M2298.62 685.687C2299.32 685.684 2300.01 685.681 2300.72 685.678C2314.09 685.657 2326.5 687.001 2339 692C2339 697.28 2339 702.56 2339 708C2335.55 707.137 2332.79 706.069 2329.56 704.625C2314.78 698.508 2295.99 695.554 2280.38 700.625C2275.96 702.671 2273.41 704.756 2271 709C2270.19 713.537 2270.5 715.283 2273.13 719.09C2275.91 722.247 2278.35 723.149 2282.5 724.062C2283.16 724.214 2283.83 724.366 2284.51 724.522C2289.34 725.576 2294.2 726.378 2299.08 727.18C2300.34 727.388 2301.6 727.597 2302.9 727.812C2305.41 728.22 2307.93 728.612 2310.44 728.987C2322.76 730.941 2334.18 734.307 2341.94 744.562C2343.99 751.203 2344.36 758.93 2341.44 765.375C2335.42 775.253 2326.09 780.232 2315.05 783.145C2308.31 784.535 2301.42 784.392 2294.56 784.375C2293.85 784.375 2293.14 784.376 2292.41 784.376C2277.97 784.349 2265.49 782.207 2252 777C2252 771.72 2252 766.44 2252 761C2256.03 761.806 2258.67 762.65 2262.31 764.312C2278.21 770.948 2297.76 774.903 2314.62 769.312C2319.23 767.211 2322.69 764.612 2325 760C2325.36 756.228 2325.36 753.743 2323.69 750.312C2315.85 743.569 2304.45 742.877 2294.56 741.5C2265.34 737.417 2265.34 737.417 2256.59 727.387C2252.18 721.035 2252.49 714.457 2253 707C2254.25 703.5 2254.25 703.5 2256 701C2256.52 700.175 2257.03 699.35 2257.56 698.5C2268.69 687.089 2283.6 685.745 2298.62 685.687Z" fill="#20ADC2"/>
<path d="M2026 688C2031.28 688 2036.56 688 2042 688C2042.01 689.892 2042.03 691.783 2042.04 693.732C2042.1 700.011 2042.16 706.289 2042.24 712.567C2042.28 716.371 2042.32 720.174 2042.35 723.977C2042.37 727.654 2042.41 731.33 2042.46 735.006C2042.48 736.403 2042.49 737.799 2042.5 739.196C2042.54 748.566 2043.05 756.259 2048.06 764.312C2056.22 771.777 2065.7 771.754 2076.26 771.375C2082.8 770.965 2087.97 769.83 2092.85 765.27C2099.95 756.837 2099.32 746.031 2099.41 735.559C2099.43 734.181 2099.45 732.804 2099.47 731.427C2099.52 727.832 2099.56 724.237 2099.6 720.641C2099.64 716.961 2099.69 713.28 2099.74 709.6C2099.84 702.4 2099.92 695.2 2100 688C2105.28 688 2110.56 688 2116 688C2116.07 696.563 2116.12 705.126 2116.16 713.689C2116.17 717.666 2116.19 721.643 2116.23 725.62C2116.26 729.465 2116.28 733.31 2116.28 737.155C2116.29 738.615 2116.3 740.075 2116.32 741.535C2116.45 753.555 2115.68 763.861 2107.13 773C2094.88 784.878 2079.73 784.455 2063.66 784.273C2051.37 783.929 2041.16 780.31 2032.38 771.344C2025.21 762.329 2025.59 751.079 2025.71 740.148C2025.71 738.638 2025.72 737.128 2025.72 735.618C2025.73 731.675 2025.76 727.733 2025.79 723.791C2025.82 719.755 2025.84 715.719 2025.85 711.684C2025.89 703.789 2025.94 695.895 2026 688Z" fill="#20ADC2"/>
<path d="M1789 688C1822 688 1855 688 1889 688C1889 691.96 1889 695.92 1889 700C1875.14 700 1861.28 700 1847 700C1847 727.39 1847 754.78 1847 783C1841.39 782.67 1835.78 782.34 1830 782C1830 754.94 1830 727.88 1830 700C1816.47 700 1802.94 700 1789 700C1789 696.04 1789 692.08 1789 688Z" fill="#20ADC2"/>
</svg>
