<svg width="32" height="32" viewBox="0 0 32 32" fill="none" xmlns="http://www.w3.org/2000/svg">
<path d="M4 4V28H28V4H4ZM24 6.66667C24.736 6.66667 25.3333 7.264 25.3333 8C25.3333 8.736 24.736 9.33333 24 9.33333C23.264 9.33333 22.6667 8.736 22.6667 8C22.6667 7.264 23.264 6.66667 24 6.66667ZM16 9.33333C19.6813 9.33333 22.6667 12.3187 22.6667 16C22.6667 19.6813 19.6813 22.6667 16 22.6667C12.3187 22.6667 9.33333 19.6813 9.33333 16C9.33333 12.3187 12.3187 9.33333 16 9.33333ZM16 12C14.9391 12 13.9217 12.4214 13.1716 13.1716C12.4214 13.9217 12 14.9391 12 16C12 17.0609 12.4214 18.0783 13.1716 18.8284C13.9217 19.5786 14.9391 20 16 20C17.0609 20 18.0783 19.5786 18.8284 18.8284C19.5786 18.0783 20 17.0609 20 16C20 14.9391 19.5786 13.9217 18.8284 13.1716C18.0783 12.4214 17.0609 12 16 12Z" fill="white"/>
</svg>
