<svg width="32" height="32" viewBox="0 0 32 32" fill="none" xmlns="http://www.w3.org/2000/svg">
<path d="M25.436 6.57067C22.9213 4.05467 19.5773 2.668 16.0146 2.66667C8.67329 2.66667 2.69863 8.63867 2.69596 15.98C2.69463 18.3267 3.30796 20.6173 4.47329 22.636L2.66663 29.3333L9.64396 27.684C11.5893 28.7453 13.7786 29.304 16.008 29.3053H16.0133C23.3533 29.3053 29.328 23.332 29.332 15.992C29.3346 12.4333 27.9506 9.088 25.436 6.57067ZM22.5306 20.7387C22.2533 21.516 20.8946 22.2653 20.284 22.32C19.6733 22.376 19.1013 22.596 16.2906 21.488C12.908 20.1547 10.772 16.6867 10.6066 16.4653C10.44 16.2427 9.24796 14.6613 9.24796 13.024C9.24796 11.3867 10.108 10.5813 10.4133 10.2493C10.7186 9.916 11.0786 9.83333 11.3013 9.83333C11.5226 9.83333 11.7453 9.83333 11.9386 9.84133C12.176 9.85067 12.4386 9.86267 12.688 10.416C12.984 11.0747 13.6306 12.72 13.7133 12.8867C13.796 13.0533 13.852 13.248 13.7413 13.4693C13.6306 13.6907 13.5746 13.8293 13.4093 14.024C13.2426 14.2187 13.06 14.4573 12.9106 14.6067C12.744 14.772 12.5706 14.9533 12.764 15.2853C12.9586 15.6187 13.6253 16.708 14.6146 17.5893C15.8866 18.7227 16.9573 19.0733 17.2906 19.2413C17.624 19.408 17.8173 19.38 18.012 19.1573C18.2066 18.936 18.844 18.1867 19.0653 17.8533C19.2866 17.52 19.5093 17.576 19.8146 17.6867C20.12 17.7973 21.756 18.6027 22.088 18.7693C22.4213 18.936 22.6426 19.0187 22.7253 19.1573C22.808 19.2947 22.808 19.9613 22.5306 20.7387Z" fill="white"/>
</svg>
